<?xml version="1.0" encoding="UTF-8" standalone="no"?><svg xmlns="http://www.w3.org/2000/svg" xmlns:xlink="http://www.w3.org/1999/xlink" height="511" version="1.1" width="835.5078125"><defs/><g><g><rect fill="#C0C0C0" fill-opacity="0.2" height="161" stroke="none" transform="matrix(1 0 0 1 -54 -166)" width="396.81982421875" x="183" y="311"/></g><g><rect fill="#ffffff" height="161" stroke="none" transform="matrix(1 0 0 1 -54 -166)" width="396.81982421875" x="176" y="304"/></g><g><path d=" M 122 138 L 518.81982421875 138 L 518.81982421875 299 L 122 299 L 122 138 Z Z" fill="none" paint-order="fill stroke markers" stroke="#000000" stroke-dasharray="" stroke-miterlimit="10"/></g><g><path d=" M 122 163 L 518.81982421875 163" fill="none" paint-order="fill stroke markers" stroke="#000000" stroke-dasharray="" stroke-miterlimit="10"/></g><g><path d=" M 122 201 L 518.81982421875 201" fill="none" paint-order="fill stroke markers" stroke="#000000" stroke-dasharray="" stroke-miterlimit="10"/></g><g><g><path fill="none" stroke="none"/><text dominant-baseline="central" fill="#000000" font-family="Arial" font-size="13px" font-style="normal" font-weight="bold" stroke="none" text-anchor="middle" text-decoration="undefined" transform="matrix(1 0 0 1 -54 -166)" x="374.909912109375" y="317.5">KDTree</text></g></g><g><g><path fill="none" stroke="none"/><text dominant-baseline="central" fill="#000000" font-family="Arial" font-size="13px" font-style="normal" font-weight="normal" stroke="none" text-anchor="start" text-decoration="undefined" transform="matrix(1 0 0 1 -54 -166)" x="181" y="340.5">-root: KDTreeNode</text></g></g><g><g><path fill="none" stroke="none"/><text dominant-baseline="central" fill="#000000" font-family="Arial" font-size="13px" font-style="normal" font-weight="normal" stroke="none" text-anchor="start" text-decoration="undefined" transform="matrix(1 0 0 1 -54 -166)" x="181" y="355.5">-state: HashMap</text></g></g><g><g><path fill="none" stroke="none"/><text dominant-baseline="central" fill="#000000" font-family="Arial" font-size="13px" font-style="normal" font-weight="normal" stroke="none" text-anchor="start" text-decoration="undefined" transform="matrix(1 0 0 1 -54 -166)" x="181" y="378.5">+new(points: Vec, state: HashMap)</text></g></g><g><g><path fill="none" stroke="none"/><text dominant-baseline="central" fill="#000000" font-family="Arial" font-size="13px" font-style="normal" font-weight="normal" stroke="none" text-anchor="start" text-decoration="undefined" transform="matrix(1 0 0 1 -54 -166)" x="181" y="393.5">+build(points Vec, depth: usize)</text></g></g><g><g><path fill="none" stroke="none"/><text dominant-baseline="central" fill="#000000" font-family="Arial" font-size="13px" font-style="normal" font-weight="normal" stroke="none" text-anchor="start" text-decoration="undefined" transform="matrix(1 0 0 1 -54 -166)" x="181" y="408.5">+nearest(query: Vec, node: KDTreeNode, best)</text></g></g><g><g><path fill="none" stroke="none"/><text dominant-baseline="central" fill="#000000" font-family="Arial" font-size="13px" font-style="normal" font-weight="normal" stroke="none" text-anchor="start" text-decoration="undefined" transform="matrix(1 0 0 1 -54 -166)" x="181" y="423.5">+insert(point: Vec)</text></g></g><g><g><path fill="none" stroke="none"/><text dominant-baseline="central" fill="#000000" font-family="Arial" font-size="13px" font-style="normal" font-weight="normal" stroke="none" text-anchor="start" text-decoration="undefined" transform="matrix(1 0 0 1 -54 -166)" x="181" y="438.5">-insert_recursive(node: KDTreeNode, vector_db: Vec, depth: usize)</text></g></g><g><g><path fill="none" stroke="none"/><text dominant-baseline="central" fill="#000000" font-family="Arial" font-size="13px" font-style="normal" font-weight="normal" stroke="none" text-anchor="start" text-decoration="undefined" transform="matrix(1 0 0 1 -54 -166)" x="181" y="453.5">+get(inp_vector: Vec)</text></g></g><g><rect fill="#C0C0C0" fill-opacity="0.2" height="80" stroke="none" transform="matrix(1 0 0 1 -54 -166)" width="144" x="183" y="183"/></g><g><rect fill="#ffffff" height="80" stroke="none" transform="matrix(1 0 0 1 -54 -166)" width="144" x="176" y="176"/></g><g><path d=" M 122 10 L 266 10 L 266 90 L 122 90 L 122 10 Z Z" fill="none" paint-order="fill stroke markers" stroke="#000000" stroke-dasharray="" stroke-miterlimit="10"/></g><g><path d=" M 122 48 L 266 48" fill="none" paint-order="fill stroke markers" stroke="#000000" stroke-dasharray="" stroke-miterlimit="10"/></g><g><g><path fill="none" stroke="none"/><text dominant-baseline="central" fill="#000000" font-family="Arial" font-size="13px" font-style="normal" font-weight="normal" stroke="none" text-anchor="middle" text-decoration="undefined" transform="matrix(1 0 0 1 -54 -166)" x="248.5" y="187.5">«enumeration»</text></g></g><g><g><path fill="none" stroke="none"/><text dominant-baseline="central" fill="#000000" font-family="Arial" font-size="13px" font-style="normal" font-weight="bold" stroke="none" text-anchor="middle" text-decoration="undefined" transform="matrix(1 0 0 1 -54 -166)" x="248.5" y="202.5">KDTreeNode</text></g></g><g><g><path fill="none" stroke="none"/><text dominant-baseline="central" fill="#000000" font-family="Arial" font-size="13px" font-style="normal" font-weight="normal" stroke="none" text-anchor="start" text-decoration="undefined" transform="matrix(1 0 0 1 -54 -166)" x="181" y="225.5">Leaf</text></g></g><g><g><path fill="none" stroke="none"/><text dominant-baseline="central" fill="#000000" font-family="Arial" font-size="13px" font-style="normal" font-weight="normal" stroke="none" text-anchor="start" text-decoration="undefined" transform="matrix(1 0 0 1 -54 -166)" x="181" y="240.5">Internal</text></g></g><g><path d=" M 321 137 L 322 50 L 267 50" fill="none" paint-order="fill stroke markers" stroke="#000000" stroke-dasharray="" stroke-miterlimit="10"/></g><g><rect fill="#C0C0C0" fill-opacity="0.2" height="88" stroke="none" transform="matrix(1 0 0 1 -54 -166)" width="282.0859375" x="239" y="535"/></g><g><rect fill="#ffffff" height="88" stroke="none" transform="matrix(1 0 0 1 -54 -166)" width="282.0859375" x="232" y="528"/></g><g><path d=" M 178 362 L 460.0859375 362 L 460.0859375 450 L 178 450 L 178 362 Z Z" fill="none" paint-order="fill stroke markers" stroke="#000000" stroke-dasharray="" stroke-miterlimit="10"/></g><g><path d=" M 178 387 L 460.0859375 387" fill="none" paint-order="fill stroke markers" stroke="#000000" stroke-dasharray="" stroke-miterlimit="10"/></g><g><path d=" M 178 397 L 460.0859375 397" fill="none" paint-order="fill stroke markers" stroke="#000000" stroke-dasharray="" stroke-miterlimit="10"/></g><g><g><path fill="none" stroke="none"/><text dominant-baseline="central" fill="#000000" font-family="Arial" font-size="13px" font-style="normal" font-weight="bold" stroke="none" text-anchor="middle" text-decoration="undefined" transform="matrix(1 0 0 1 -54 -166)" x="373.54296875" y="541.5">FastSearch</text></g></g><g><g><path fill="none" stroke="none"/><text dominant-baseline="central" fill="#000000" font-family="Arial" font-size="13px" font-style="normal" font-weight="normal" stroke="none" text-anchor="start" text-decoration="undefined" transform="matrix(1 0 0 1 -54 -166)" x="237" y="574.5">+nearest_neighbor(query: Vec, vec_db: Vector)</text></g></g><g><g><path fill="none" stroke="none"/><text dominant-baseline="central" fill="#000000" font-family="Arial" font-size="13px" font-style="normal" font-weight="normal" stroke="none" text-anchor="start" text-decoration="undefined" transform="matrix(1 0 0 1 -54 -166)" x="237" y="589.5">+get_state()</text></g></g><g><g><path fill="none" stroke="none"/><text dominant-baseline="central" fill="#000000" font-family="Arial" font-size="13px" font-style="normal" font-weight="normal" stroke="none" text-anchor="start" text-decoration="undefined" transform="matrix(1 0 0 1 -54 -166)" x="237" y="604.5">+set_state(serialized_state: str)</text></g></g><g><rect fill="#C0C0C0" fill-opacity="0.2" height="161" stroke="none" transform="matrix(1 0 0 1 -54 -166)" width="240.14697265625" x="631" y="239"/></g><g><rect fill="#ffffff" height="161" stroke="none" transform="matrix(1 0 0 1 -54 -166)" width="240.14697265625" x="624" y="232"/></g><g><path d=" M 570 66 L 810.14697265625 66 L 810.14697265625 227 L 570 227 L 570 66 Z Z" fill="none" paint-order="fill stroke markers" stroke="#000000" stroke-dasharray="" stroke-miterlimit="10"/></g><g><path d=" M 570 91 L 810.14697265625 91" fill="none" paint-order="fill stroke markers" stroke="#000000" stroke-dasharray="" stroke-miterlimit="10"/></g><g><path d=" M 570 159 L 810.14697265625 159" fill="none" paint-order="fill stroke markers" stroke="#000000" stroke-dasharray="" stroke-miterlimit="10"/></g><g><g><path fill="none" stroke="none"/><text dominant-baseline="central" fill="#000000" font-family="Arial" font-size="13px" font-style="normal" font-weight="bold" stroke="none" text-anchor="middle" text-decoration="undefined" transform="matrix(1 0 0 1 -54 -166)" x="744.573486328125" y="245.5">HashGenerator</text></g></g><g><g><path fill="none" stroke="none"/><text dominant-baseline="central" fill="#000000" font-family="Arial" font-size="13px" font-style="normal" font-weight="normal" stroke="none" text-anchor="start" text-decoration="undefined" transform="matrix(1 0 0 1 -54 -166)" x="629" y="268.5">-hash_size: usize</text></g></g><g><g><path fill="none" stroke="none"/><text dominant-baseline="central" fill="#000000" font-family="Arial" font-size="13px" font-style="normal" font-weight="normal" stroke="none" text-anchor="start" text-decoration="undefined" transform="matrix(1 0 0 1 -54 -166)" x="629" y="283.5">-dimention_size: usize</text></g></g><g><g><path fill="none" stroke="none"/><text dominant-baseline="central" fill="#000000" font-family="Arial" font-size="13px" font-style="normal" font-weight="normal" stroke="none" text-anchor="start" text-decoration="undefined" transform="matrix(1 0 0 1 -54 -166)" x="629" y="298.5">-projection: Vec</text></g></g><g><g><path fill="none" stroke="none"/><text dominant-baseline="central" fill="#000000" font-family="Arial" font-size="13px" font-style="normal" font-weight="normal" stroke="none" text-anchor="start" text-decoration="undefined" transform="matrix(1 0 0 1 -54 -166)" x="629" y="313.5">-hash_map: HashMap</text></g></g><g><g><path fill="none" stroke="none"/><text dominant-baseline="central" fill="#000000" font-family="Arial" font-size="13px" font-style="normal" font-weight="normal" stroke="none" text-anchor="start" text-decoration="undefined" transform="matrix(1 0 0 1 -54 -166)" x="629" y="336.5">+new(hash_size, dimention_size: usize)</text></g></g><g><g><path fill="none" stroke="none"/><text dominant-baseline="central" fill="#000000" font-family="Arial" font-size="13px" font-style="normal" font-weight="normal" stroke="none" text-anchor="start" text-decoration="undefined" transform="matrix(1 0 0 1 -54 -166)" x="629" y="351.5">-generate_hash(inp_vec: Vec)</text></g></g><g><g><path fill="none" stroke="none"/><text dominant-baseline="central" fill="#000000" font-family="Arial" font-size="13px" font-style="normal" font-weight="normal" stroke="none" text-anchor="start" text-decoration="undefined" transform="matrix(1 0 0 1 -54 -166)" x="629" y="366.5">+insert(inp_vector: Vec)</text></g></g><g><g><path fill="none" stroke="none"/><text dominant-baseline="central" fill="#000000" font-family="Arial" font-size="13px" font-style="normal" font-weight="normal" stroke="none" text-anchor="start" text-decoration="undefined" transform="matrix(1 0 0 1 -54 -166)" x="629" y="381.5">+get(inp_vector: Vec)</text></g></g><g><rect fill="#C0C0C0" fill-opacity="0.2" height="146" stroke="none" transform="matrix(1 0 0 1 -54 -166)" width="270.5078125" x="615" y="503"/></g><g><rect fill="#ffffff" height="146" stroke="none" transform="matrix(1 0 0 1 -54 -166)" width="270.5078125" x="608" y="496"/></g><g><path d=" M 554 330 L 824.5078125 330 L 824.5078125 476 L 554 476 L 554 330 Z Z" fill="none" paint-order="fill stroke markers" stroke="#000000" stroke-dasharray="" stroke-miterlimit="10"/></g><g><path d=" M 554 355 L 824.5078125 355" fill="none" paint-order="fill stroke markers" stroke="#000000" stroke-dasharray="" stroke-miterlimit="10"/></g><g><path d=" M 554 423 L 824.5078125 423" fill="none" paint-order="fill stroke markers" stroke="#000000" stroke-dasharray="" stroke-miterlimit="10"/></g><g><g><path fill="none" stroke="none"/><text dominant-baseline="central" fill="#000000" font-family="Arial" font-size="13px" font-style="normal" font-weight="bold" stroke="none" text-anchor="middle" text-decoration="undefined" transform="matrix(1 0 0 1 -54 -166)" x="743.75390625" y="509.5">LSH</text></g></g><g><g><path fill="none" stroke="none"/><text dominant-baseline="central" fill="#000000" font-family="Arial" font-size="13px" font-style="normal" font-weight="normal" stroke="none" text-anchor="start" text-decoration="undefined" transform="matrix(1 0 0 1 -54 -166)" x="613" y="532.5">-num_tables: usize</text></g></g><g><g><path fill="none" stroke="none"/><text dominant-baseline="central" fill="#000000" font-family="Arial" font-size="13px" font-style="normal" font-weight="normal" stroke="none" text-anchor="start" text-decoration="undefined" transform="matrix(1 0 0 1 -54 -166)" x="613" y="547.5">-hash_size: usize</text></g></g><g><g><path fill="none" stroke="none"/><text dominant-baseline="central" fill="#000000" font-family="Arial" font-size="13px" font-style="normal" font-weight="normal" stroke="none" text-anchor="start" text-decoration="undefined" transform="matrix(1 0 0 1 -54 -166)" x="613" y="562.5">-dimention_size: usize</text></g></g><g><g><path fill="none" stroke="none"/><text dominant-baseline="central" fill="#000000" font-family="Arial" font-size="13px" font-style="normal" font-weight="normal" stroke="none" text-anchor="start" text-decoration="undefined" transform="matrix(1 0 0 1 -54 -166)" x="613" y="577.5">-generators[]: HashGenerator</text></g></g><g><g><path fill="none" stroke="none"/><text dominant-baseline="central" fill="#000000" font-family="Arial" font-size="13px" font-style="normal" font-weight="normal" stroke="none" text-anchor="start" text-decoration="undefined" transform="matrix(1 0 0 1 -54 -166)" x="613" y="600.5">+new(num_table, hash_size, dimention_size)</text></g></g><g><g><path fill="none" stroke="none"/><text dominant-baseline="central" fill="#000000" font-family="Arial" font-size="13px" font-style="normal" font-weight="normal" stroke="none" text-anchor="start" text-decoration="undefined" transform="matrix(1 0 0 1 -54 -166)" x="613" y="615.5">+insert(inp_vector: Vec)</text></g></g><g><g><path fill="none" stroke="none"/><text dominant-baseline="central" fill="#000000" font-family="Arial" font-size="13px" font-style="normal" font-weight="normal" stroke="none" text-anchor="start" text-decoration="undefined" transform="matrix(1 0 0 1 -54 -166)" x="613" y="630.5">+nerest(inp_vector: Vec)</text></g></g><g><path d=" M 690 228 L 689 329" fill="none" paint-order="fill stroke markers" stroke="#000000" stroke-dasharray="" stroke-miterlimit="10"/></g><g><path d=" M 684.8913041691081 318.7961468763407 L 689 329 L 693.3099270541145 318.87949957817244 L 689.2178111064715 307.00107824637996" fill="#000000" paint-order="stroke fill markers" stroke="none"/></g><g><path d=" M 684.8913041691081 318.7961468763407 L 689 329 L 693.3099270541145 318.87949957817244 L 689.2178111064715 307.00107824637996 L 684.8913041691081 318.7961468763407" fill="none" paint-order="fill stroke markers" stroke="#000000" stroke-dasharray="" stroke-miterlimit="10"/></g><g><path d=" M 319 361 L 320 300" fill="none" paint-order="fill stroke markers" stroke="#000000" stroke-dasharray="" stroke-miterlimit="10"/></g><g><path d=" M 324.04237338159294 310.230308765809 L 320 300 L 315.6244689282766 310.0923103321481" fill="none" paint-order="fill stroke markers" stroke="#000000" stroke-dasharray="" stroke-miterlimit="10"/></g><g><path d=" M 461 405 L 553 404" fill="none" paint-order="fill stroke markers" stroke="#000000" stroke-dasharray="" stroke-miterlimit="10"/></g><g><path d=" M 542.8836783613007 408.31972643837355 L 553 404 L 542.7921725111668 399.9011882260562" fill="none" paint-order="fill stroke markers" stroke="#000000" stroke-dasharray="" stroke-miterlimit="10"/></g><g><rect fill="#C0C0C0" fill-opacity="0.2" height="88" stroke="none" transform="matrix(1 0 0 1 -54 -166)" width="120" x="71" y="535"/></g><g><rect fill="#ffffff" height="88" stroke="none" transform="matrix(1 0 0 1 -54 -166)" width="120" x="64" y="528"/></g><g><path d=" M 10 362 L 130 362 L 130 450 L 10 450 L 10 362 Z Z" fill="none" paint-order="fill stroke markers" stroke="#000000" stroke-dasharray="" stroke-miterlimit="10"/></g><g><path d=" M 10 387 L 130 387" fill="none" paint-order="fill stroke markers" stroke="#000000" stroke-dasharray="" stroke-miterlimit="10"/></g><g><path d=" M 10 410 L 130 410" fill="none" paint-order="fill stroke markers" stroke="#000000" stroke-dasharray="" stroke-miterlimit="10"/></g><g><g><path fill="none" stroke="none"/><text dominant-baseline="central" fill="#000000" font-family="Arial" font-size="13px" font-style="normal" font-weight="bold" stroke="none" text-anchor="middle" text-decoration="undefined" transform="matrix(1 0 0 1 -54 -166)" x="124.5" y="541.5">VecDB</text></g></g><g><g><path fill="none" stroke="none"/><text dominant-baseline="central" fill="#000000" font-family="Arial" font-size="13px" font-style="normal" font-weight="normal" stroke="none" text-anchor="start" text-decoration="undefined" transform="matrix(1 0 0 1 -54 -166)" x="69" y="564.5">+state: HashMap</text></g></g><g><path d=" M 131 406 L 177 406" fill="none" paint-order="fill stroke markers" stroke="#000000" stroke-dasharray="" stroke-miterlimit="10"/></g><g><path d=" M 166.83732514237585 410.209517756016 L 177 406 L 166.83732514237585 401.790482243984" fill="none" paint-order="fill stroke markers" stroke="#000000" stroke-dasharray="" stroke-miterlimit="10"/></g><g><g><path fill="none" stroke="none"/><text dominant-baseline="text-before-edge" fill="#000000" font-family="Arial" font-size="13px" font-style="normal" font-weight="normal" stroke="none" text-anchor="start" text-decoration="undefined" transform="matrix(1 0 0 1 -54 -166)" x="413" y="621">Trait: Serialize</text><text dominant-baseline="text-before-edge" fill="#000000" font-family="Arial" font-size="13px" font-style="normal" font-weight="normal" stroke="none" text-anchor="start" text-decoration="undefined" transform="matrix(1 0 0 1 -54 -166)" x="413" y="634">+ Deserialize +</text><text dominant-baseline="text-before-edge" fill="#000000" font-family="Arial" font-size="13px" font-style="normal" font-weight="normal" stroke="none" text-anchor="start" text-decoration="undefined" transform="matrix(1 0 0 1 -54 -166)" x="413" y="647">Clone</text></g></g><g><g><path fill="none" stroke="none"/><text dominant-baseline="text-before-edge" fill="#000000" font-family="Arial" font-size="13px" font-style="normal" font-weight="normal" stroke="none" text-anchor="start" text-decoration="undefined" transform="matrix(1 0 0 1 -54 -166)" x="757" y="448">1..num_tables</text></g></g></g></svg>